<?xml version="1.0" encoding="UTF-8"?>
<svg id="Layer_1" data-name="Layer 1" xmlns="http://www.w3.org/2000/svg" viewBox="0 0 1080 1080">
  <defs>
    <style>
      .cls-1 {
        fill: #ed177f;
      }

      .cls-2 {
        fill: #6d52a2;
      }

      .cls-3 {
        font-family: Poppins-Bold, Poppins;
        font-size: 109px;
        font-weight: 700;
      }
    </style>
  </defs>
  <g>
    <g>
      <path class="cls-1" d="M121.8,436.6v147.4c1.1,6.9,6,32.9,29.5,52.8,5.8,4.9,57-20.6,53.3-20.8-3.7,0-10-.3-17.1-3.3-6.6-2.7-11.1-6.6-13.6-9.1-2.4-2.7-5.2-6.5-7.7-11.5-3-6.2-4.3-11.8-4.9-15.8v-105.4c-.3-3.1-1.8-14.5-11.4-23.7-11.4-11-25.6-10.7-28.1-10.6Z"/>
      <rect class="cls-1" x="153.6" y="488.4" width="52.3" height="39.8"/>
      <path class="cls-2" d="M69,436.6v147.4c1.1,6.9,6,32.9,29.5,52.8,20,17,41.9,19.6,49.6,20.1,8,.3,27.5,0,47.7-11.8,16.3-9.6,25.4-22.3,29.5-29,2.3-3.6,4.6-8.1,6.7-13.3,4.4-11.3,5.3-21.5,5.3-28.6,0-4.6.6-12.3,4.4-20.7,2.7-5.9,6-10.3,8.7-13.2,2.3-2.4,6.7-6.5,13.4-9.2,6.8-2.8,12.9-2.9,16.2-2.8,3.5-.2,9.3-.1,15.9,2.1,7.9,2.7,13.1,7.2,15.8,9.9,9.4-9.1,18.8-18.3,28.2-27.4-5-5.1-14.6-13.6-29.3-19.2-13.3-5.1-25.1-5.5-32-5.2-5.9,0-13.9.8-22.8,3.5-7.6,2.2-13.8,5.2-18.4,7.9-4.8,3.3-10.3,7.6-15.9,13.3-5.1,5.2-9.1,10.2-12.2,14.7-2.4,3.9-5.1,8.8-7.3,14.8-3.1,8.4-4.4,16-4.8,21.8.3,5.8,0,16.2-5.1,27.3-2.3,5.1-5.1,9.1-7.6,12.1-2.9,2.7-8.2,7-16,9.8-6.8,2.4-12.8,2.7-16.6,2.6-3.7,0-10-.3-17.1-3.3-6.6-2.7-11.1-6.6-13.6-9.1-2.4-2.7-5.2-6.5-7.7-11.5-3-6.2-4.3-11.8-4.9-15.8v-105.4c-.3-3.1-1.8-14.5-11.4-23.7-11.4-11-25.6-10.7-28.1-10.6Z"/>
      <rect class="cls-2" x="100.8" y="488.4" width="52.3" height="39.8"/>
      <rect class="cls-2" x="255.4" y="558.4" width="51.5" height="20.3"/>
      <rect class="cls-2" x="255.4" y="558.4" width="51.5" height="20.3" transform="translate(849.7 287.3) rotate(90)"/>
      <path class="cls-1" d="M341.7,630.8c.2,5.3-7.2,9.5-16.5,14.7-5.4,3.1-11.2,6.3-20,8.6-9.7,2.5-17.4,2.3-24.1,2.1-5.4-.2-14-.5-24.6-3.8-2.5-.8-10.2-3.3-19-8.6-5.9-3.6-9.9-7-11.1-8-3.2-2.8-5.5-5.2-7.3-7.1-3-3.2-5.1-5.8-7.2-8.4-1.8-2.2-4-5.1-6.5-8.6-.1-.2-.7-1.4-.2-2.4.3-.5.8-.9,1.2-1.2.4-.3.7-.4,1-.5.4-.1,1-.2,1.7-.1.8,0,1.3.4,1.7.6,1.7.8,3,1.7,3.8,2.3,1.8,1.3,2.5,2.1,4.7,3.8,1.3,1,2.3,1.7,3,2.2,3,2.4,7,5.2,12,7.6,3.8,1.8,7.3,3.1,10.3,3.9,3.5,1,7.6,2,12.4,2.6,4.4.6,8.3.7,11.7.6.9,0,2.9-.3,4.8-1.6,1-.7,1.7-1.5,2.2-2.1.1-.3.2-.7.3-1.3,0-.7,0-1.2-.2-1.6-.8-1.4-1.9-3.2-3.7-5-1.4-1.4-2.7-2.5-3.9-3.2-1.3-.9-3-2.3-4.7-4.3-1.4-1.8-2.3-3.5-2.9-4.8-.2-1-.5-1.9-.7-2.9-.2-.9-.4-2.7,0-4.7.6-2.5,2-4.1,2.7-4.8,1.1-.2,1.8,0,2.1.2.5.3.9.7,1.4,1.3.4.5.8,1,1,1.4,1.1,1.8,2.9,4.3,5.6,6.6,2,1.7,3.9,2.8,5.4,3.6,2.7,1.5,5.5,3.1,8.4,5,3.5,2.3,6.7,4.6,9.5,6.8.9.7,1.8,1.5,2.7,2.4,1.2,1.2,2.3,2.4,3.1,3.5,2.2.7,5.6,1.5,9.6.9,4.8-.7,8.2-3,10-4.2,4.8-3.4,5-6.4,7.6-6.5,2.2,0,4,2.1,7.4,6.5,3.5,4.3,5.2,6.5,5.3,8.4Z"/>
      <path class="cls-1" d="M235.3,621.6s0,0,0,0c-1.4-.5-2.5-1-3.2-1.3-1.1-.5-2.1-1.1-4-2.3-1-.6-1.2-.8-2.4-1.5-.7-.4-1-.6-1.5-.9-.9-.6-1.5-1.1-2-1.5s0,0,0,0c-.3-.3-.8-.8-1.3-1.5-.4-.5-.7-1-1.8-3.3-.8-1.6-1.1-2.3-1.4-3.4-.2-.9-.2-1.5,0-2,.3-.6.9-.9,1.2-1s0,0,0,0c.4,0,1.1-.1,1.8,0,.8.2,1.3.6,1.7.9,1.9,1.5,3.3,3.1,3.3,3.1,1.1,1.2,2,2.5,3.2,4.5,1.3,2.1,1.1,2.3,2.6,4.9.8,1.4,1.7,2.6,2,3,.6.9,1.2,1.7,1.7,2.3Z"/>
      <path class="cls-1" d="M247.4,625.5s0,0,0,0c-1.6-.3-3.4-.7-5.4-1.3-1.6-.5-3.1-1-4.3-1.6s0,0,0,0c-.5-.8-1.2-1.7-1.8-2.9-.3-.5-.6-1.1-2.2-4.1-1.3-2.5-1.5-3.6-2.1-5,0,0-.5-1.3.1-2.2.6-.9,2.3-.8,3.1-.6.3,0,1,.3,2.2,1.2,1.9,1.5,3.1,3.3,4.2,5,.4.6.6,1,1,1.7,1,1.8,1.2,2.1,2.4,4.5.8,1.6,1.6,2.9,2.1,3.7.3.6.6,1.1.8,1.4Z"/>
      <path class="cls-1" d="M256.9,627.4l-7.8-1.3s0,0,0,0c-1.1-1.5-2.2-3.3-3.2-5.4-.9-1.8-1.6-3.5-2.1-5-.2-.8,0-1.7.7-2.2.5-.4,1.1-.4,1.3-.4.5,0,1.2.2,1.9.5,1.6.7,2.5,1.8,2.9,2.4.6.8,1.2,1.6,1.8,2.5.9,1.3,1.6,2.6,2.3,3.8.8,1.6,1.6,3.3,2.4,4.9s0,.2-.1.2Z"/>
    </g>
    <text class="cls-3" transform="translate(372.7 542.7)"><tspan class="cls-2"><tspan x="0" y="0">TRUSTOTRY</tspan></tspan><tspan class="cls-1"><tspan x="0" y="106.5">CARE</tspan></tspan></text>
  </g>
  <text/>
</svg>