<svg width="668" height="221" viewBox="0 0 668 221" fill="none" xmlns="http://www.w3.org/2000/svg">
<path d="M52.8008 0.599921V148C53.9008 154.9 58.8008 180.9 82.3008 200.8C88.1008 205.7 139.301 180.2 135.601 180C131.901 180 125.601 179.7 118.501 176.7C111.901 174 107.401 170.1 104.901 167.6C102.501 164.9 99.7008 161.1 97.2008 156.1C94.2008 149.9 92.9008 144.3 92.3008 140.3V34.8999C92.0008 31.7999 90.5008 20.3999 80.9008 11.1999C69.5008 0.199927 55.3008 0.499921 52.8008 0.599921Z" fill="#ED177F"/>
<path d="M136.9 52.3999H84.5996V92.1999H136.9V52.3999Z" fill="#ED177F"/>
<path d="M0 0.599854V148C1.1 154.9 6 180.9 29.5 200.8C49.5 217.8 71.4 220.4 79.1 220.9C87.1 221.2 106.6 220.9 126.8 209.1C143.1 199.5 152.2 186.8 156.3 180.1C158.6 176.5 160.9 172 163 166.8C167.4 155.5 168.3 145.3 168.3 138.2C168.3 133.6 168.9 125.9 172.7 117.5C175.4 111.6 178.7 107.2 181.4 104.3C183.7 101.9 188.1 97.7998 194.8 95.0998C201.6 92.2998 207.7 92.1998 211 92.2998C214.5 92.0998 220.3 92.1999 226.9 94.3999C234.8 97.0999 240 101.6 242.7 104.3C252.1 95.1998 261.5 85.9999 270.9 76.8999C265.9 71.7999 256.3 63.2999 241.6 57.6999C228.3 52.5999 216.5 52.1998 209.6 52.4998C203.7 52.4998 195.7 53.2998 186.8 55.9998C179.2 58.1998 173 61.1998 168.4 63.8998C163.6 67.1998 158.1 71.4999 152.5 77.1999C147.4 82.3999 143.4 87.3999 140.3 91.8999C137.9 95.7999 135.2 100.7 133 106.7C129.9 115.1 128.6 122.7 128.2 128.5C128.5 134.3 128.2 144.7 123.1 155.8C120.8 160.9 118 164.9 115.5 167.9C112.6 170.6 107.3 174.9 99.5 177.7C92.7 180.1 86.7 180.4 82.9 180.3C79.2 180.3 72.9 180 65.8 177C59.2 174.3 54.7 170.4 52.2 167.9C49.8 165.2 47 161.4 44.5 156.4C41.5 150.2 40.2 144.6 39.6 140.6V35.1999C39.3 32.0999 37.8 20.6998 28.2 11.4998C16.8 0.499847 2.6 0.799841 0.0999985 0.899841L0 0.599854Z" fill="#6E4BB2"/>
<path d="M84.1008 52.3999H31.8008V92.1999H84.1008V52.3999Z" fill="#6E4BB2"/>
<path d="M237.9 122.4H186.4V142.7H237.9V122.4Z" fill="#6E4BB2"/>
<path d="M222.301 158.2V106.7H202.001V158.2H222.301Z" fill="#6E4BB2"/>
<path d="M272.7 194.8C272.9 200.1 265.5 204.3 256.2 209.5C250.8 212.6 245 215.8 236.2 218.1C226.5 220.6 218.8 220.4 212.1 220.2C206.7 220 198.1 219.7 187.5 216.4C185 215.6 177.3 213.1 168.5 207.8C162.6 204.2 158.6 200.8 157.4 199.8C154.2 197 151.9 194.6 150.1 192.7C147.1 189.5 145 186.9 142.9 184.3C141.1 182.1 138.9 179.2 136.4 175.7C136.3 175.5 135.7 174.3 136.2 173.3C136.5 172.8 137 172.4 137.4 172.1C137.8 171.8 138.1 171.7 138.4 171.6C138.8 171.5 139.4 171.4 140.1 171.5C140.9 171.5 141.4 171.9 141.8 172.1C143.5 172.9 144.8 173.8 145.6 174.4C147.4 175.7 148.1 176.5 150.3 178.2C151.6 179.2 152.6 179.9 153.3 180.4C156.3 182.8 160.3 185.6 165.3 188C169.1 189.8 172.6 191.1 175.6 191.9C179.1 192.9 183.2 193.9 188 194.5C192.4 195.1 196.3 195.2 199.7 195.1C200.6 195.1 202.6 194.8 204.5 193.5C205.5 192.8 206.2 192 206.7 191.4C206.8 191.1 206.9 190.7 207 190.1C207 189.4 207 188.9 206.8 188.5C206 187.1 204.9 185.3 203.1 183.5C201.7 182.1 200.4 181 199.2 180.3C197.9 179.4 196.2 178 194.5 176C193.1 174.2 192.2 172.5 191.6 171.2C191.4 170.2 191.1 169.3 190.9 168.3C190.7 167.4 190.5 165.6 190.9 163.6C191.5 161.1 192.9 159.5 193.6 158.8C194.7 158.6 195.4 158.8 195.7 159C196.2 159.3 196.6 159.7 197.1 160.3C197.5 160.8 197.9 161.3 198.1 161.7C199.2 163.5 201 166 203.7 168.3C205.7 170 207.6 171.1 209.1 171.9C211.8 173.4 214.6 175 217.5 176.9C221 179.2 224.2 181.5 227 183.7C227.9 184.4 228.8 185.2 229.7 186.1C230.9 187.3 232 188.5 232.8 189.6C235 190.3 238.4 191.1 242.4 190.5C247.2 189.8 250.6 187.5 252.4 186.3C257.2 182.9 257.4 179.9 260 179.8C262.2 179.8 264 181.9 267.4 186.3C270.9 190.6 272.6 192.8 272.7 194.7V194.8Z" fill="#ED177F"/>
<path d="M166.301 185.6C164.901 185.1 163.801 184.6 163.101 184.3C162.001 183.8 161.001 183.2 159.101 182C158.101 181.4 157.901 181.2 156.701 180.5C156.001 180.1 155.701 179.9 155.201 179.6C154.301 179 153.701 178.5 153.201 178.1C152.901 177.8 152.401 177.3 151.901 176.6C151.501 176.1 151.201 175.6 150.101 173.3C149.301 171.7 149.001 171 148.701 169.9C148.501 169 148.501 168.4 148.701 167.9C149.001 167.3 149.601 167 149.901 166.9C150.301 166.9 151.001 166.8 151.701 166.9C152.501 167.1 153.001 167.5 153.401 167.8C155.301 169.3 156.701 170.9 156.701 170.9C157.801 172.1 158.701 173.4 159.901 175.4C161.201 177.5 161.001 177.7 162.501 180.3C163.301 181.7 164.201 182.9 164.501 183.3C165.101 184.2 165.701 185 166.201 185.6H166.301Z" fill="#ED177F"/>
<path d="M178.4 189.5C176.8 189.2 175 188.8 173 188.2C171.4 187.7 169.9 187.2 168.7 186.6C168.2 185.8 167.5 184.9 166.9 183.7C166.6 183.2 166.3 182.6 164.7 179.6C163.4 177.1 163.2 176 162.6 174.6C162.6 174.6 162.1 173.3 162.7 172.4C163.3 171.5 165 171.6 165.8 171.8C166.1 171.8 166.8 172.1 168 173C169.9 174.5 171.1 176.3 172.2 178C172.6 178.6 172.8 179 173.2 179.7C174.2 181.5 174.4 181.8 175.6 184.2C176.4 185.8 177.2 187.1 177.7 187.9C178 188.5 178.3 189 178.5 189.3L178.4 189.5Z" fill="#ED177F"/>
<path d="M187.9 191.4L180.1 190.1C179 188.6 177.9 186.8 176.9 184.7C176 182.9 175.3 181.2 174.8 179.7C174.6 178.9 174.8 178 175.5 177.5C176 177.1 176.6 177.1 176.8 177.1C177.3 177.1 178 177.3 178.7 177.6C180.3 178.3 181.2 179.4 181.6 180C182.2 180.8 182.8 181.6 183.4 182.5C184.3 183.8 185 185.1 185.7 186.3C186.5 187.9 187.3 189.6 188.1 191.2C188.9 192.8 188.1 191.4 188 191.4H187.9Z" fill="#ED177F"/>
<path d="M328.991 48.0351V56.8031H317.087V92.9631H306.143V56.8031H294.239V48.0351H328.991ZM357.396 92.9631L348.052 76.0031H345.428V92.9631H334.484V48.0351H352.852C356.393 48.0351 359.401 48.6538 361.876 49.8911C364.393 51.1285 366.27 52.8351 367.508 55.0111C368.745 57.1445 369.364 59.5338 369.364 62.1791C369.364 65.1658 368.51 67.8325 366.804 70.1791C365.14 72.5258 362.665 74.1898 359.38 75.1711L369.748 92.9631H357.396ZM345.428 68.2591H352.212C354.217 68.2591 355.71 67.7685 356.692 66.7871C357.716 65.8058 358.228 64.4191 358.228 62.6271C358.228 60.9205 357.716 59.5765 356.692 58.5951C355.71 57.6138 354.217 57.1231 352.212 57.1231H345.428V68.2591ZM386.986 48.0351V74.9151C386.986 77.6031 387.647 79.6725 388.97 81.1231C390.292 82.5738 392.234 83.2991 394.794 83.2991C397.354 83.2991 399.316 82.5738 400.682 81.1231C402.047 79.6725 402.73 77.6031 402.73 74.9151V48.0351H413.674V74.8511C413.674 78.8618 412.82 82.2538 411.114 85.0271C409.407 87.8005 407.103 89.8911 404.202 91.2991C401.343 92.7071 398.143 93.4111 394.602 93.4111C391.06 93.4111 387.882 92.7285 385.066 91.3631C382.292 89.9551 380.095 87.8645 378.474 85.0911C376.852 82.2751 376.042 78.8618 376.042 74.8511V48.0351H386.986ZM437.615 93.4111C434.329 93.4111 431.385 92.8778 428.783 91.8111C426.18 90.7445 424.089 89.1658 422.511 87.0751C420.975 84.9845 420.164 82.4671 420.079 79.5231H431.727C431.897 81.1871 432.473 82.4671 433.455 83.3631C434.436 84.2165 435.716 84.6431 437.295 84.6431C438.916 84.6431 440.196 84.2805 441.135 83.5551C442.073 82.7871 442.543 81.7418 442.543 80.4191C442.543 79.3098 442.159 78.3925 441.391 77.6671C440.665 76.9418 439.748 76.3445 438.639 75.8751C437.572 75.4058 436.036 74.8725 434.031 74.2751C431.129 73.3791 428.761 72.4831 426.927 71.5871C425.092 70.6911 423.513 69.3685 422.191 67.6191C420.868 65.8698 420.207 63.5871 420.207 60.7711C420.207 56.5898 421.721 53.3258 424.751 50.9791C427.78 48.5898 431.727 47.3951 436.591 47.3951C441.54 47.3951 445.529 48.5898 448.559 50.9791C451.588 53.3258 453.209 56.6111 453.423 60.8351H441.583C441.497 59.3845 440.964 58.2538 439.983 57.4431C439.001 56.5898 437.743 56.1631 436.207 56.1631C434.884 56.1631 433.817 56.5258 433.007 57.2511C432.196 57.9338 431.791 58.9365 431.791 60.2591C431.791 61.7098 432.473 62.8405 433.839 63.6511C435.204 64.4618 437.337 65.3365 440.239 66.2751C443.14 67.2565 445.487 68.1951 447.279 69.0911C449.113 69.9871 450.692 71.2885 452.015 72.9951C453.337 74.7018 453.999 76.8991 453.999 79.5871C453.999 82.1471 453.337 84.4725 452.015 86.5631C450.735 88.6538 448.857 90.3178 446.383 91.5551C443.908 92.7925 440.985 93.4111 437.615 93.4111ZM493.054 48.0351V56.8031H481.15V92.9631H470.206V56.8031H458.302V48.0351H493.054ZM519.794 93.4111C515.57 93.4111 511.687 92.4298 508.146 90.4671C504.647 88.5045 501.853 85.7738 499.762 82.2751C497.714 78.7338 496.69 74.7658 496.69 70.3711C496.69 65.9765 497.714 62.0298 499.762 58.5311C501.853 55.0325 504.647 52.3018 508.146 50.3391C511.687 48.3765 515.57 47.3951 519.794 47.3951C524.018 47.3951 527.879 48.3765 531.378 50.3391C534.919 52.3018 537.693 55.0325 539.698 58.5311C541.746 62.0298 542.77 65.9765 542.77 70.3711C542.77 74.7658 541.746 78.7338 539.698 82.2751C537.65 85.7738 534.877 88.5045 531.378 90.4671C527.879 92.4298 524.018 93.4111 519.794 93.4111ZM519.794 83.4271C523.378 83.4271 526.237 82.2325 528.37 79.8431C530.546 77.4538 531.634 74.2965 531.634 70.3711C531.634 66.4031 530.546 63.2458 528.37 60.8991C526.237 58.5098 523.378 57.3151 519.794 57.3151C516.167 57.3151 513.266 58.4885 511.09 60.8351C508.957 63.1818 507.89 66.3605 507.89 70.3711C507.89 74.3391 508.957 77.5178 511.09 79.9071C513.266 82.2538 516.167 83.4271 519.794 83.4271ZM581.179 48.0351V56.8031H569.275V92.9631H558.331V56.8031H546.427V48.0351H581.179ZM609.583 92.9631L600.239 76.0031H597.615V92.9631H586.671V48.0351H605.039C608.58 48.0351 611.588 48.6538 614.063 49.8911C616.58 51.1285 618.458 52.8351 619.695 55.0111C620.932 57.1445 621.551 59.5338 621.551 62.1791C621.551 65.1658 620.698 67.8325 618.991 70.1791C617.327 72.5258 614.852 74.1898 611.567 75.1711L621.935 92.9631H609.583ZM597.615 68.2591H604.399C606.404 68.2591 607.898 67.7685 608.879 66.7871C609.903 65.8058 610.415 64.4191 610.415 62.6271C610.415 60.9205 609.903 59.5765 608.879 58.5951C607.898 57.6138 606.404 57.1231 604.399 57.1231H597.615V68.2591ZM666.949 48.0351L651.397 78.1151V92.9631H640.453V78.1151L624.901 48.0351H637.317L646.021 66.8511L654.661 48.0351H666.949Z" fill="#6E4BB2"/>
<path d="M294.952 169.98C294.952 165.256 295.974 161.055 298.018 157.376C300.062 153.651 302.9 150.767 306.534 148.723C310.213 146.633 314.37 145.588 319.003 145.588C324.68 145.588 329.541 147.087 333.583 150.085C337.626 153.083 340.328 157.171 341.691 162.349H328.882C327.928 160.351 326.565 158.829 324.794 157.784C323.068 156.74 321.092 156.217 318.866 156.217C315.278 156.217 312.371 157.466 310.145 159.965C307.92 162.463 306.807 165.801 306.807 169.98C306.807 174.159 307.92 177.498 310.145 179.996C312.371 182.494 315.278 183.743 318.866 183.743C321.092 183.743 323.068 183.221 324.794 182.176C326.565 181.131 327.928 179.61 328.882 177.611H341.691C340.328 182.789 337.626 186.877 333.583 189.875C329.541 192.828 324.68 194.304 319.003 194.304C314.37 194.304 310.213 193.282 306.534 191.238C302.9 189.148 300.062 186.264 298.018 182.585C295.974 178.906 294.952 174.704 294.952 169.98ZM378.6 185.515H360.749L357.888 193.963H345.692L362.998 146.134H376.488L393.794 193.963H381.462L378.6 185.515ZM375.602 176.521L369.675 159.011L363.815 176.521H375.602ZM423.453 193.963L413.505 175.908H410.712V193.963H399.061V146.134H418.615C422.385 146.134 425.587 146.792 428.222 148.109C430.902 149.427 432.9 151.244 434.218 153.56C435.535 155.831 436.193 158.375 436.193 161.191C436.193 164.371 435.285 167.209 433.468 169.708C431.697 172.206 429.062 173.977 425.565 175.022L436.602 193.963H423.453ZM410.712 167.664H417.934C420.069 167.664 421.658 167.141 422.703 166.097C423.793 165.052 424.338 163.576 424.338 161.668C424.338 159.851 423.793 158.42 422.703 157.376C421.658 156.331 420.069 155.808 417.934 155.808H410.712V167.664ZM455.158 155.468V165.143H470.76V174.136H455.158V184.629H472.804V193.963H443.507V146.134H472.804V155.468H455.158Z" fill="#ED177F"/>
</svg>
