<svg width="280" height="96" viewBox="0 0 280 96" fill="none" xmlns="http://www.w3.org/2000/svg">
<path d="M37.5334 57.96L32.6374 81H11.8054L17.0854 56.328L7.67738 20.04H30.7174L37.2454 44.136L51.6454 20.04H62.0134L37.5334 57.96ZM92.6209 37.704C92.8129 36.744 92.9089 35.432 92.9089 33.768C92.9089 32.808 92.8449 31.88 92.7169 30.984C92.5889 30.024 92.3649 29.192 92.0449 28.488C91.7249 27.72 91.2449 27.144 90.6049 26.76C89.9649 26.312 89.1329 26.088 88.1089 26.088C86.9569 26.088 85.9009 26.344 84.9409 26.856C83.9809 27.368 83.1169 28.04 82.3489 28.872C81.6449 29.64 81.0689 30.568 80.6209 31.656C80.2369 32.68 80.0449 33.768 80.0449 34.92C80.0449 36.584 80.4609 37.864 81.2929 38.76C82.1889 39.656 83.3409 40.392 84.7489 40.968C86.1569 41.544 87.7569 42.024 89.5489 42.408C91.3409 42.792 93.1969 43.24 95.1169 43.752C96.7169 44.2 98.3169 44.776 99.9169 45.48C101.517 46.184 102.925 47.144 104.141 48.36C105.421 49.512 106.445 51.048 107.213 52.968C107.981 54.824 108.365 57.16 108.365 59.976C108.365 64.008 107.565 67.4 105.965 70.152C104.365 72.904 102.157 75.144 99.3409 76.872C96.5249 78.6 93.1649 79.848 89.2609 80.616C85.4209 81.384 81.2289 81.768 76.6849 81.768C72.0769 81.768 68.3009 81.48 65.3569 80.904C62.4769 80.264 60.2049 79.592 58.5409 78.888C56.5569 78.056 55.0849 77.096 54.1249 76.008L57.3889 62.856H74.2849C74.2209 63.432 74.1569 64.232 74.0929 65.256C74.0289 66.216 73.9969 66.984 73.9969 67.56C73.9969 68.328 74.0929 69.128 74.2849 69.96C74.4769 70.792 74.7649 71.56 75.1489 72.264C75.5969 72.968 76.2049 73.544 76.9729 73.992C77.7409 74.44 78.7009 74.664 79.8529 74.664C81.1329 74.664 82.2529 74.376 83.2129 73.8C84.2369 73.224 85.0689 72.52 85.7089 71.688C86.4129 70.792 86.9249 69.832 87.2449 68.808C87.6289 67.72 87.8209 66.664 87.8209 65.64C87.8209 64.232 87.4689 63.048 86.7649 62.088C86.1249 61.128 85.2289 60.328 84.0769 59.688C82.9249 58.984 81.5809 58.408 80.0449 57.96C78.5729 57.448 77.0369 56.936 75.4369 56.424C73.9009 55.976 72.2689 55.432 70.5409 54.792C68.8769 54.152 67.3409 53.256 65.9329 52.104C64.5249 50.952 63.3409 49.512 62.3809 47.784C61.4849 45.992 61.0369 43.72 61.0369 40.968C61.0369 36.872 62.0609 33.448 64.1089 30.696C66.2209 27.88 68.8449 25.608 71.9809 23.88C75.1809 22.152 78.6689 20.936 82.4449 20.232C86.2209 19.464 89.8049 19.08 93.1969 19.08C97.6769 19.08 101.517 19.624 104.717 20.712C107.981 21.736 110.445 22.952 112.109 24.36L108.557 37.704H92.6209ZM166.245 81H143.781L142.437 65.736H124.677L117.861 81H108.549L136.869 20.04H159.621L166.245 81ZM127.845 58.728H141.765L139.557 32.616L127.845 58.728Z" fill="currentColor"/>
<path d="M171.86 38.02C171.86 36.66 172.167 35.44 172.78 34.36C173.393 33.2667 174.227 32.4133 175.28 31.8C176.347 31.1867 177.527 30.88 178.82 30.88C180.34 30.88 181.667 31.2467 182.8 31.98C183.933 32.7133 184.76 33.7533 185.28 35.1H183.1C182.713 34.26 182.153 33.6133 181.42 33.16C180.7 32.7067 179.833 32.48 178.82 32.48C177.847 32.48 176.973 32.7067 176.2 33.16C175.427 33.6133 174.82 34.26 174.38 35.1C173.94 35.9267 173.72 36.9 173.72 38.02C173.72 39.1267 173.94 40.1 174.38 40.94C174.82 41.7667 175.427 42.4067 176.2 42.86C176.973 43.3133 177.847 43.54 178.82 43.54C179.833 43.54 180.7 43.32 181.42 42.88C182.153 42.4267 182.713 41.78 183.1 40.94H185.28C184.76 42.2733 183.933 43.3067 182.8 44.04C181.667 44.76 180.34 45.12 178.82 45.12C177.527 45.12 176.347 44.82 175.28 44.22C174.227 43.6067 173.393 42.76 172.78 41.68C172.167 40.6 171.86 39.38 171.86 38.02ZM194.309 45.14C193.016 45.14 191.836 44.84 190.769 44.24C189.703 43.6267 188.856 42.78 188.229 41.7C187.616 40.6067 187.309 39.38 187.309 38.02C187.309 36.66 187.616 35.44 188.229 34.36C188.856 33.2667 189.703 32.42 190.769 31.82C191.836 31.2067 193.016 30.9 194.309 30.9C195.616 30.9 196.803 31.2067 197.869 31.82C198.936 32.42 199.776 33.26 200.389 34.34C201.003 35.42 201.309 36.6467 201.309 38.02C201.309 39.3933 201.003 40.62 200.389 41.7C199.776 42.78 198.936 43.6267 197.869 44.24C196.803 44.84 195.616 45.14 194.309 45.14ZM194.309 43.56C195.283 43.56 196.156 43.3333 196.929 42.88C197.716 42.4267 198.329 41.78 198.769 40.94C199.223 40.1 199.449 39.1267 199.449 38.02C199.449 36.9 199.223 35.9267 198.769 35.1C198.329 34.26 197.723 33.6133 196.949 33.16C196.176 32.7067 195.296 32.48 194.309 32.48C193.323 32.48 192.443 32.7067 191.669 33.16C190.896 33.6133 190.283 34.26 189.829 35.1C189.389 35.9267 189.169 36.9 189.169 38.02C189.169 39.1267 189.389 40.1 189.829 40.94C190.283 41.78 190.896 42.4267 191.669 42.88C192.456 43.3333 193.336 43.56 194.309 43.56ZM214.672 45H212.852L205.532 33.9V45H203.712V31.04H205.532L212.852 42.12V31.04H214.672V45ZM228.734 45H226.914L219.594 33.9V45H217.774V31.04H219.594L226.914 42.12V31.04H228.734V45ZM233.657 32.54V37.2H238.737V38.7H233.657V43.5H239.337V45H231.837V31.04H239.337V32.54H233.657ZM241.411 38.02C241.411 36.66 241.717 35.44 242.331 34.36C242.944 33.2667 243.777 32.4133 244.831 31.8C245.897 31.1867 247.077 30.88 248.371 30.88C249.891 30.88 251.217 31.2467 252.351 31.98C253.484 32.7133 254.311 33.7533 254.831 35.1H252.651C252.264 34.26 251.704 33.6133 250.971 33.16C250.251 32.7067 249.384 32.48 248.371 32.48C247.397 32.48 246.524 32.7067 245.751 33.16C244.977 33.6133 244.371 34.26 243.931 35.1C243.491 35.9267 243.271 36.9 243.271 38.02C243.271 39.1267 243.491 40.1 243.931 40.94C244.371 41.7667 244.977 42.4067 245.751 42.86C246.524 43.3133 247.397 43.54 248.371 43.54C249.384 43.54 250.251 43.32 250.971 42.88C251.704 42.4267 252.264 41.78 252.651 40.94H254.831C254.311 42.2733 253.484 43.3067 252.351 44.04C251.217 44.76 249.891 45.12 248.371 45.12C247.077 45.12 245.897 44.82 244.831 44.22C243.777 43.6067 242.944 42.76 242.331 41.68C241.717 40.6 241.411 39.38 241.411 38.02ZM266.12 31.06V32.54H262.32V45H260.5V32.54H256.68V31.06H266.12ZM180.78 61.9H174.7L173.58 65H171.66L176.7 51.14H178.8L183.82 65H181.9L180.78 61.9ZM180.26 60.42L177.74 53.38L175.22 60.42H180.26ZM196.977 65H195.157L187.837 53.9V65H186.017V51.04H187.837L195.157 62.12V51.04H196.977V65ZM204.419 51.06C205.939 51.06 207.252 51.3467 208.359 51.92C209.479 52.48 210.332 53.2867 210.919 54.34C211.519 55.3933 211.819 56.6333 211.819 58.06C211.819 59.4867 211.519 60.7267 210.919 61.78C210.332 62.82 209.479 63.62 208.359 64.18C207.252 64.7267 205.939 65 204.419 65H200.079V51.06H204.419ZM204.419 63.5C206.219 63.5 207.592 63.0267 208.539 62.08C209.486 61.12 209.959 59.78 209.959 58.06C209.959 56.3267 209.479 54.9733 208.519 54C207.572 53.0267 206.206 52.54 204.419 52.54H201.899V63.5H204.419ZM223.972 65.14C223.052 65.14 222.225 64.98 221.492 64.66C220.772 64.3267 220.205 63.8733 219.792 63.3C219.378 62.7133 219.165 62.04 219.152 61.28H221.092C221.158 61.9333 221.425 62.4867 221.892 62.94C222.372 63.38 223.065 63.6 223.972 63.6C224.838 63.6 225.518 63.3867 226.012 62.96C226.518 62.52 226.772 61.96 226.772 61.28C226.772 60.7467 226.625 60.3133 226.332 59.98C226.038 59.6467 225.672 59.3933 225.232 59.22C224.792 59.0467 224.198 58.86 223.452 58.66C222.532 58.42 221.792 58.18 221.232 57.94C220.685 57.7 220.212 57.3267 219.812 56.82C219.425 56.3 219.232 55.6067 219.232 54.74C219.232 53.98 219.425 53.3067 219.812 52.72C220.198 52.1333 220.738 51.68 221.432 51.36C222.138 51.04 222.945 50.88 223.852 50.88C225.158 50.88 226.225 51.2067 227.052 51.86C227.892 52.5133 228.365 53.38 228.472 54.46H226.472C226.405 53.9267 226.125 53.46 225.632 53.06C225.138 52.6467 224.485 52.44 223.672 52.44C222.912 52.44 222.292 52.64 221.812 53.04C221.332 53.4267 221.092 53.9733 221.092 54.68C221.092 55.1867 221.232 55.6 221.512 55.92C221.805 56.24 222.158 56.4867 222.572 56.66C222.998 56.82 223.592 57.0067 224.352 57.22C225.272 57.4733 226.012 57.7267 226.572 57.98C227.132 58.22 227.612 58.6 228.012 59.12C228.412 59.6267 228.612 60.32 228.612 61.2C228.612 61.88 228.432 62.52 228.072 63.12C227.712 63.72 227.178 64.2067 226.472 64.58C225.765 64.9533 224.932 65.14 223.972 65.14ZM233.11 52.54V57.2H238.19V58.7H233.11V63.5H238.79V65H231.29V51.04H238.79V52.54H233.11ZM248.884 65L245.564 59.3H243.364V65H241.544V51.06H246.044C247.097 51.06 247.984 51.24 248.704 51.6C249.437 51.96 249.984 52.4467 250.344 53.06C250.704 53.6733 250.884 54.3733 250.884 55.16C250.884 56.12 250.604 56.9667 250.044 57.7C249.497 58.4333 248.671 58.92 247.564 59.16L251.064 65H248.884ZM243.364 57.84H246.044C247.031 57.84 247.771 57.6 248.264 57.12C248.757 56.6267 249.004 55.9733 249.004 55.16C249.004 54.3333 248.757 53.6933 248.264 53.24C247.784 52.7867 247.044 52.56 246.044 52.56H243.364V57.84ZM265.232 51.06L259.972 65H257.872L252.612 51.06H254.552L258.932 63.08L263.312 51.06H265.232ZM269.048 52.54V57.2H274.128V58.7H269.048V63.5H274.728V65H267.228V51.04H274.728V52.54H269.048Z" fill="currentColor" fillOpacity="0.75"/>
</svg>
